<?xml version="1.0" encoding="utf-8"?>
<!-- Generator: Adobe Illustrator 22.0.0, SVG Export Plug-In . SVG Version: 6.00 Build 0)  -->
<svg version="1.1" id="Layer_1" xmlns="http://www.w3.org/2000/svg" xmlns:xlink="http://www.w3.org/1999/xlink" x="0px" y="0px"
	 viewBox="0 0 607.4 592.4" style="enable-background:new 0 0 607.4 592.4;" xml:space="preserve">
<style type="text/css">
	.st0{font-family:'MyriadPro-Regular';}
	.st1{font-size:36px;}
	.st2{fill:none;stroke:#000000;stroke-width:5;stroke-miterlimit:10;}
	.st3{fill:none;stroke:#FF0000;stroke-width:5;stroke-miterlimit:10;}
	.st4{fill:none;stroke:#FF0000;stroke-width:5;stroke-miterlimit:10;stroke-dasharray:10.0238,5.0119;}
	.st5{fill:#FF0000;}
	.st6{font-size:24px;}
	.st7{font-size:21px;}
</style>
<text transform="matrix(1 0 0 1 79 53.4)" class="st0 st1">Server</text>
<text transform="matrix(1 0 0 1 439 53.4)" class="st0 st1">Client</text>
<g>
	<g>
		<line class="st2" x1="123.5" y1="71.4" x2="123.5" y2="528.1"/>
		<g>
			<polygon points="116,525.9 123.5,538.9 131,525.9 			"/>
		</g>
	</g>
</g>
<g>
	<g>
		<line class="st2" x1="483.5" y1="71.4" x2="483.5" y2="528.5"/>
		<g>
			<polygon points="476.3,526.4 483.5,538.9 490.7,526.4 			"/>
		</g>
	</g>
</g>
<g>
	<g>
		<line class="st3" x1="141.5" y1="88.9" x2="146.2" y2="90.5"/>
		<line class="st4" x1="151" y1="92.1" x2="448.2" y2="191.1"/>
		<line class="st3" x1="450.5" y1="191.9" x2="455.3" y2="193.5"/>
		<g>
			<polygon class="st5" points="450.8,199.9 465.5,196.9 455.6,185.7 			"/>
		</g>
	</g>
</g>
<g>
	<g>
		<line class="st3" x1="466.5" y1="233.9" x2="461.8" y2="235.5"/>
		<line class="st4" x1="457" y1="237.1" x2="159.8" y2="336.1"/>
		<line class="st3" x1="157.5" y1="336.9" x2="152.7" y2="338.5"/>
		<g>
			<polygon class="st5" points="152.4,330.7 142.5,341.9 157.2,344.9 			"/>
		</g>
	</g>
</g>
<g>
	<g>
		<line class="st3" x1="142.5" y1="377.9" x2="147.2" y2="379.5"/>
		<line class="st4" x1="152" y1="381.1" x2="449.2" y2="480.1"/>
		<line class="st3" x1="451.5" y1="480.9" x2="456.3" y2="482.5"/>
		<g>
			<polygon class="st5" points="451.8,488.9 466.5,485.9 456.6,474.7 			"/>
		</g>
	</g>
</g>
<text transform="matrix(0.9526 0.3044 -0.3044 0.9526 249.8534 107.8347)" class="st0 st6">SYNchronize</text>
<text transform="matrix(0.9561 0.293 -0.293 0.9561 241.0555 395.2654)" class="st0 st6">ACKnowledge</text>
<text transform="matrix(0.9505 -0.3108 0.3108 0.9505 169.4748 314.8564)" class="st0 st6">SYNchronize-ACKnowledge</text>
<text transform="matrix(1 0 0 1 23.4107 88.981)"><tspan x="0" y="0" class="st0 st7">Request </tspan><tspan x="-11.9" y="25.2" class="st0 st7">connection</tspan></text>
<text transform="matrix(1 0 0 1 511.8897 196.9814)"><tspan x="0" y="0" class="st0 st7">Confirm</tspan><tspan x="29.1" y="25.2" class="st0 st7">+ </tspan><tspan x="-2.4" y="50.4" class="st0 st7">Request </tspan><tspan x="-14.2" y="75.6" class="st0 st7">connection</tspan></text>
<text transform="matrix(1 0 0 1 25.8897 367.9814)" class="st0 st7">Confirm</text>
<text transform="matrix(1 0 0 1 186.3555 529.9814)" class="st0 st6">Connection Established</text>
</svg>
